<svg xmlns="http://www.w3.org/2000/svg" viewBox="0 0 475.21 372.99"><defs><style>.cls-1{fill:#917347;}.cls-2{fill:#a25768;}.cls-3{fill:#b68d4c;}.cls-4{fill:#99ab4e;}</style></defs><title>logo</title><g id="logo"><path id="k" class="cls-1" d="M461.53,287.86q13.68.63,13.68,6.74T461.53,302L357.67,304.5l85.5,52.63q8,5.78,0,9.95t-18.24-1L348.55,318,261.9,369.32q-13.68,6.4-20.52,1.61t2.28-11.88l93.49-54.55H250.5q-12.56-1.29-12.54-7.38t11.4-6.74Z"/><path id="m" class="cls-2" d="M382.2,225.14l-1.71,1.48A8.85,8.85,0,0,1,368,225.7l-13-15c-1.44-1.67-2.36-2.24-3.91-2.36-1-.07-5.17,1.37-6,2.22-2,2-4.38,7.35-1.8,10.35l3.55,3.75a8.85,8.85,0,0,1-.92,12.49l-1.71,1.47a8.83,8.83,0,0,1-12.48-.92l-3.59-3.79a7.25,7.25,0,0,0-3.6-2.36c-.92-.34-3.95.5-4.86,1.29-1.67,1.44-3.6,6.33-1,9.32l13,15a8.85,8.85,0,0,1-.92,12.49L329,271.09a8.86,8.86,0,0,1-12.49-.92l-15.63-18.11a21.22,21.22,0,0,1-5.39-15.48,19.56,19.56,0,0,1,7-14.31c3-2.57,11-8.05,15.05-8.6a9.14,9.14,0,0,0,7.63-6.48c1.19-4,8.88-12.55,11.75-14.6,5.77-4.11,11.51-6.77,17.72-5.73q7.29,1.17,14.37,9.38l14.17,16.41A8.84,8.84,0,0,1,382.2,225.14Z"/><path id="c" class="cls-3" d="M373.8,258.77l9.41,2.22c2.08.75,3.31,2.27,3,3.49-1.21,4.59-1.85,6-5.21,9.19a21.36,21.36,0,0,1-15.34,6,21.85,21.85,0,0,1-16.14-6.65,22.3,22.3,0,0,1-6.59-16.3A21.08,21.08,0,0,1,348.69,242a23.16,23.16,0,0,1,18-7.4,21.85,21.85,0,0,1,13.2,5.1c3.13,2.58,3.89,3.65,5.06,6.92.45,1.25-.7,3.13-2.66,3.87l-9.76,2.85a3,3,0,0,1-2.18-.86,6.3,6.3,0,0,0-4.58-1.87,6.06,6.06,0,0,0-4.56,1.83,6.3,6.3,0,0,0-1.79,4.6,6.48,6.48,0,0,0,1.89,4.74,6.39,6.39,0,0,0,4.72,1.91,5.65,5.65,0,0,0,5.22-3.35A3,3,0,0,1,373.8,258.77Z"/><path id="j" class="cls-4" d="M403.35,257.12v-2.56a5.29,5.29,0,0,1,5.29-5.29H433q9.29,0,14.77,4.39,7,5.59,7,15.4a15.24,15.24,0,0,1-.16,2.18,5.29,5.29,0,0,1-5.25,4.57h-1.44a5.36,5.36,0,0,1-5.28-5.54v0q0-7.8-11.5-7.8H408.64A5.3,5.3,0,0,1,403.35,257.12Z"/><path id="o" class="cls-4" d="M392.82,249.27a6.41,6.41,0,0,1,4.63,1.88,6.21,6.21,0,0,1,.1,8.94,7.22,7.22,0,0,1-9.45,0,6.21,6.21,0,0,1,.1-8.94A6.4,6.4,0,0,1,392.82,249.27Z"/><path id="s" d="M373.86,132.76c-1.61-31.2-21-52.77-42.42-80.08-43.06-54.8-106.37-68-149.63-34.07-40.88,32.12-37,79.35-25.89,116.48l13.6,52.66c10,36.64,18.37,62.83-8.77,84.15-22.35,17.55-53.85,10.75-81.46-24.4-19.15-24.38-28.66-54.07-29.9-83.91a23,23,0,0,0-22-22.18l-3.53-.14A22.86,22.86,0,0,0,0,164.54,186.51,186.51,0,0,0,40.23,274.41c49.45,62.95,115.37,72,159.94,37,40.56-31.86,40.41-73.83,26.63-119.3l-13-50.68c-9.72-31.9-19.74-62.78,4.35-81.71,22.72-17.84,51.67-8.82,74.62,20.39C310,102,325.84,112.71,328.1,135.41c.56,5.66,2.13,10.64,6.52,13.62,5-3.24,7.28-26.06,10.37-25.33,4.86,1.15,3,29.68,6.86,32.58l3-.24C367.94,156.23,374.53,145.81,373.86,132.76Zm-13.95-16.94c2.17-.63,4.78,1.81,5.85,5.46s.16,7.13-2,7.76-4.79-1.82-5.85-5.47S357.74,116.45,359.91,115.82Z"/></g></svg>